REM DIRINDEX 1\4,1\2\5,1\2\6,1\3\7,1\3\8
REM DIRNAME folder01,folder02,folder03,folder04,folder05,folder06,folder07,folder08
TITLE ""
FILE "101_Day51_Check2_Phrases.mp3" MP3
  TRACK 01 AUDIO
    TITLE "0:"
    INDEX 01 00:00:00
  TRACK 02 AUDIO
    TITLE "4:cjc124_3303"
    INDEX 01 00:00:33
  TRACK 03 AUDIO
    TITLE "0:"
    INDEX 01 00:01:56
  TRACK 04 AUDIO
    TITLE "5:cjc124_3304"
    INDEX 01 00:02:12
  TRACK 05 AUDIO
    TITLE "0:"
    INDEX 01 00:03:66
  TRACK 06 AUDIO
    TITLE "6:cjc124_3305"
    INDEX 01 00:04:11
  TRACK 07 AUDIO
    TITLE "0:"
    INDEX 01 00:05:42
  TRACK 08 AUDIO
    TITLE "5:cjc124_3306"
    INDEX 01 00:06:04
  TRACK 09 AUDIO
    TITLE "0:"
    INDEX 01 00:07:66
  TRACK 10 AUDIO
    TITLE "6:cjc124_3307"
    INDEX 01 00:08:11
  TRACK 11 AUDIO
    TITLE "0:"
    INDEX 01 00:09:59
  TRACK 12 AUDIO
    TITLE "5:cjc124_3308"
    INDEX 01 00:10:21
  TRACK 13 AUDIO
    TITLE "0:"
    INDEX 01 00:12:14
  TRACK 14 AUDIO
    TITLE "6:cjc124_3309"
    INDEX 01 00:12:32
  TRACK 15 AUDIO
    TITLE "0:"
    INDEX 01 00:14:06
  TRACK 16 AUDIO
    TITLE "5:cjc124_3310"
    INDEX 01 00:14:49
  TRACK 17 AUDIO
    TITLE "0:"
    INDEX 01 00:16:48
  TRACK 18 AUDIO
    TITLE "6:cjc124_3311"
    INDEX 01 00:16:65
  TRACK 19 AUDIO
    TITLE "0:"
    INDEX 01 00:18:27
  TRACK 20 AUDIO
    TITLE "5:cjc124_3312"
    INDEX 01 00:18:70
  TRACK 21 AUDIO
    TITLE "0:"
    INDEX 01 00:20:39
  TRACK 22 AUDIO
    TITLE "6:cjc124_3313"
    INDEX 01 00:20:59
  TRACK 23 AUDIO
    TITLE "0:"
    INDEX 01 00:22:25
  TRACK 24 AUDIO
    TITLE "5:cjc124_3314"
    INDEX 01 00:22:60
  TRACK 25 AUDIO
    TITLE "0:"
    INDEX 01 00:24:35
  TRACK 26 AUDIO
    TITLE "6:cjc124_3315"
    INDEX 01 00:24:51
  TRACK 27 AUDIO
    TITLE "0:"
    INDEX 01 00:25:60
  TRACK 28 AUDIO
    TITLE "5:cjc124_3316"
    INDEX 01 00:26:20
  TRACK 29 AUDIO
    TITLE "0:"
    INDEX 01 00:27:73
  TRACK 30 AUDIO
    TITLE "6:cjc124_3317"
    INDEX 01 00:28:19
  TRACK 31 AUDIO
    TITLE "0:"
    INDEX 01 00:29:42
  TRACK 32 AUDIO
    TITLE "5:cjc124_3318"
    INDEX 01 00:30:10
  TRACK 33 AUDIO
    TITLE "0:"
    INDEX 01 00:31:69
  TRACK 34 AUDIO
    TITLE "6:cjc124_3319"
    INDEX 01 00:32:13
  TRACK 35 AUDIO
    TITLE "0:"
    INDEX 01 00:33:46
  TRACK 36 AUDIO
    TITLE "5:cjc124_3320"
    INDEX 01 00:34:08
  TRACK 37 AUDIO
    TITLE "0:"
    INDEX 01 00:36:07
  TRACK 38 AUDIO
    TITLE "6:cjc124_3321"
    INDEX 01 00:36:25
  TRACK 39 AUDIO
    TITLE "0:"
    INDEX 01 00:38:04
  TRACK 40 AUDIO
    TITLE "5:cjc124_3322"
    INDEX 01 00:38:43
  TRACK 41 AUDIO
    TITLE "0:"
    INDEX 01 00:40:48
  TRACK 42 AUDIO
    TITLE "6:cjc124_3323"
    INDEX 01 00:40:66
  TRACK 43 AUDIO
    TITLE "0:"
    INDEX 01 00:42:49
  TRACK 44 AUDIO
    TITLE "5:cjc124_3324"
    INDEX 01 00:43:13
  TRACK 45 AUDIO
    TITLE "0:"
    INDEX 01 00:45:10
  TRACK 46 AUDIO
    TITLE "6:cjc124_3325"
    INDEX 01 00:45:28
  TRACK 47 AUDIO
    TITLE "0:"
    INDEX 01 00:47:15
  TRACK 48 AUDIO
    TITLE "5:cjc124_3326"
    INDEX 01 00:47:54
  TRACK 49 AUDIO
    TITLE "0:"
    INDEX 01 00:49:45
  TRACK 50 AUDIO
    TITLE "6:cjc124_3327"
    INDEX 01 00:49:61
  TRACK 51 AUDIO
    TITLE "0:"
    INDEX 01 00:51:46
  TRACK 52 AUDIO
    TITLE "5:cjc124_3328"
    INDEX 01 00:52:16
  TRACK 53 AUDIO
    TITLE "0:"
    INDEX 01 00:54:03
  TRACK 54 AUDIO
    TITLE "6:cjc124_3329"
    INDEX 01 00:54:21
  TRACK 55 AUDIO
    TITLE "0:"
    INDEX 01 00:55:59
  TRACK 56 AUDIO
    TITLE "5:cjc124_3330"
    INDEX 01 00:56:24
  TRACK 57 AUDIO
    TITLE "0:"
    INDEX 01 00:58:32
  TRACK 58 AUDIO
    TITLE "6:cjc124_3331"
    INDEX 01 00:58:50
  TRACK 59 AUDIO
    TITLE "0:"
    INDEX 01 01:00:43
  TRACK 60 AUDIO
    TITLE "5:cjc124_3332"
    INDEX 01 01:01:07
  TRACK 61 AUDIO
    TITLE "0:"
    INDEX 01 01:02:69
  TRACK 62 AUDIO
    TITLE "6:cjc124_3333"
    INDEX 01 01:03:10
  TRACK 63 AUDIO
    TITLE "0:"
    INDEX 01 01:04:43
  TRACK 64 AUDIO
    TITLE "5:cjc124_3334"
    INDEX 01 01:05:09
  TRACK 65 AUDIO
    TITLE "0:"
    INDEX 01 01:06:61
  TRACK 66 AUDIO
    TITLE "6:cjc124_3335"
    INDEX 01 01:07:04
  TRACK 67 AUDIO
    TITLE "0:"
    INDEX 01 01:08:58
